PathFileType	4	(X/Y/Z)	E:\Qualisys_Data\Carbon_Farble_Plate\Data\Amateur_Runner\S2\T1\S2T1V23_c3d.trc
DataRate	CameraRate	NumFrames	NumMarkers	Units	OrigDataRate	OrigDataStartFrame	OrigNumFrames
200.000000	200.000000	5	39	mm	200.000000	235	314
Frame#	Time	LSHO			RSHO			LICST			RICST			LASIS			LHEEL			RASIS			LTROC			RTROC			SACR			LTH1			LSK4			LTH2			LTH3			RHM5			LSK2			LTH4			RTH1			LTOE			RTH2			RTH3			RTH4			LLEP			RLEP			LSK1			LSK3			RSK1			LHM5			RSK2			LFT1			RSK3			RSK4			LLME			RLME			RTOE			RHEEL			RFT1			RFT2			LFT2			
		X1	Y1	Z1	X2	Y2	Z2	X3	Y3	Z3	X4	Y4	Z4	X5	Y5	Z5	X6	Y6	Z6	X7	Y7	Z7	X8	Y8	Z8	X9	Y9	Z9	X10	Y10	Z10	X11	Y11	Z11	X12	Y12	Z12	X13	Y13	Z13	X14	Y14	Z14	X15	Y15	Z15	X16	Y16	Z16	X17	Y17	Z17	X18	Y18	Z18	X19	Y19	Z19	X20	Y20	Z20	X21	Y21	Z21	X22	Y22	Z22	X23	Y23	Z23	X24	Y24	Z24	X25	Y25	Z25	X26	Y26	Z26	X27	Y27	Z27	X28	Y28	Z28	X29	Y29	Z29	X30	Y30	Z30	X31	Y31	Z31	X32	Y32	Z32	X33	Y33	Z33	X34	Y34	Z34	X35	Y35	Z35	X36	Y36	Z36	X37	Y37	Z37	X38	Y38	Z38	X39	Y39	Z39	

236	1.175	1487.94873046875	1448.871459960938	-463.0787658691406	1558.187255859375	1441.895263671875	-174.5926818847656	1509.746826171875	981.8656616210938	-436.9774475097656	1534.2763671875	975.6766357421876	-137.7754669189453	1570.501220703125	936.406005859375	-417.8074645996094	1653.572509765625	71.39703369140625	-291.2630310058594	1590.251953125	926.8436279296876	-159.7271881103516	1452.192260742188	855.9979858398438	-439.0617980957031	1431.88134765625	886.8648071289062	-127.6157073974609	1425.73291015625	1017.861755371094	-278.9403381347656	1648.573486328125	645.8111572265625	-439.2070007324219	1632.540893554688	257.0818481445312	-392.7443237304688	1571.450927734375	616.8032836914062	-435.0550842285156	1684.294555664062	555.0130615234375	-405.5764465332031	904.8790893554688	429.423095703125	-164.5903472900391	1623.089965820312	353.7446594238281	-411.46923828125	1604.015991210938	526.8558959960938	-405.4733276367188	1490.653686523438	607.20458984375	-108.0391540527344	1879.513671875	134.8199920654297	-334.4130859375	1416.227294921875	630.164794921875	-116.2670059204102	1461.488647460938	509.5939331054688	-114.1975402832031	1386.305541992188	536.3934326171875	-129.5426635742188	1657.278930664062	497.5014038085938	-404.0882263183594	1398.091064453125	501.7108459472656	-115.0689010620117	1701.39453125	362.6418762207031	-405.58203125	1711.972045898438	264.6491088867188	-390.3814697265625	1293.41015625	458.7436828613281	-120.0479354858398	1834.81396484375	89.29927062988281	-391.0301513671875	1298.0068359375	538.6038818359375	-127.3161010742188	1675.82861328125	53.48693084716797	-263.3733215332031	1192.86865234375	462.7418212890625	-139.8912811279297	1200.815551757812	541.150146484375	-149.1632690429688	1702.0517578125	88.70458984375	-356.1219787597656	1019.090637207031	512.6190185546875	-195.8656463623047	905.1873168945312	354.6474304199219	-204.4744720458984	1046.248901367188	546.9634399414062	-264.0025939941406	1023.161193847656	534.786376953125	-299.8135986328125	1021.791809082031	566.5247192382812	-247.3134918212891	1661.68505859375	43.35637664794922	-314.7455444335938
237	1.18	1508.999633789062	1442.830322265625	-464.6536254882812	1577.97998046875	1436.90087890625	-174.8981323242188	1528.541259765625	977.1065673828124	-436.8699645996094	1554.671264648438	970.1558837890624	-137.5782928466797	1589.48193359375	932.0043334960938	-418.309814453125	1661.98095703125	74.10714721679688	-289.4784545898438	1610.941772460938	922.0452880859376	-160.2166900634766	1471.055053710938	850.8728637695312	-438.1359252929688	1453.38330078125	880.1215209960938	-126.3396682739258	1445.37158203125	1012.240600585938	-278.3274841308594	1670.104370117188	643.6962890625	-435.1789245605469	1646.5302734375	252.4207458496094	-390.3753662109375	1593.404174804688	615.4625244140625	-432.0187072753906	1705.1025390625	551.5980224609375	-404.0377502441406	934.1666259765624	434.51708984375	-164.3090057373047	1639.16015625	349.6831970214844	-410.0479736328125	1624.892456054688	524.3823852539062	-405.0508117675781	1515.974853515625	601.8905639648438	-106.755615234375	1889.558837890625	119.4873580932617	-329.8769836425781	1441.45361328125	623.19580078125	-115.1860427856445	1488.505615234375	504.227294921875	-111.5619659423828	1413.11328125	529.608642578125	-127.6008453369141	1676.397338867188	493.0581665039062	-403.0839538574219	1426.418823242188	495.3501892089844	-112.5643539428711	1717.89013671875	356.7229309082031	-404.0539855957031	1726.702026367188	258.5450439453125	-388.5628662109375	1321.386962890625	453.3350219726562	-120.2483062744141	1842.166748046875	77.7519302368164	-387.0971374511719	1328.058227539062	534.0521850585938	-125.8940200805664	1681.661499023438	50.73460388183594	-262.2260131835938	1220.786499023438	460.8476867675781	-139.1736297607422	1231.184814453125	539.2450561523438	-148.4385375976562	1709.905395507812	86.12911224365234	-353.6588439941406	1049.418701171875	515.6993408203125	-195.7789306640625	933.2393188476562	359.5343627929688	-204.2656707763672	1077.01806640625	549.7709350585938	-264.3004455566406	1054.103637695312	537.6137084960938	-299.8297729492188	1052.971069335938	569.7346801757812	-247.4947509765625	1666.27734375	44.89709854125977	-314.2258911132812
238	1.185	1530.224609375	1436.393920898438	-466.2784729003906	1597.511474609375	1431.244018554688	-175.2152099609375	1547.052612304688	972.2752685546876	-436.896728515625	1574.963500976562	964.82763671875	-137.4228973388672	1608.747802734375	927.4080810546876	-419.1059875488281	1667.08544921875	74.02110290527344	-290.1552124023438	1631.021850585938	916.7388916015624	-160.8856201171875	1489.865234375	845.676513671875	-437.1994018554688	1474.7138671875	873.2505493164062	-125.6539611816406	1465.369506835938	1006.761108398438	-278.5032958984375	1692.108032226562	641.066650390625	-431.1182861328125	1660.70947265625	248.4441070556641	-388.962158203125	1616.00537109375	612.720703125	-431.8462829589844	1726.082397460938	547.480712890625	-402.9967041015625	964.1187744140624	438.2389831542969	-164.1617431640625	1655.905639648438	345.3866271972656	-408.2886657714844	1645.477905273438	521.2025146484375	-404.6417236328125	1541.548461914062	596.14208984375	-105.510856628418	1899.956420898438	104.2092208862305	-325.4799194335938	1466.526733398438	616.6031494140625	-114.4636535644531	1516.005859375	498.1969299316406	-109.9524612426758	1439.889038085938	522.0609130859375	-125.0959396362305	1695.560913085938	488.3385009765625	-402.3319091796875	1454.369506835938	488.7107238769531	-110.365104675293	1734.428833007812	350.8855590820312	-402.05712890625	1740.657104492188	252.7437591552734	-386.2998046875	1350.04248046875	449.5775756835938	-118.0088424682617	1849.73681640625	65.17137908935547	-383.0828247070312	1358.42236328125	530.5845336914062	-123.3120803833008	1684.54150390625	49.67865371704102	-261.6868591308594	1250.256958007812	459.2050170898438	-137.7819061279297	1262.01416015625	536.9144287109375	-147.4679107666016	1716.884399414062	83.26319122314453	-352.2285766601562	1080.138671875	518.1689453125	-196.1608428955078	962.6500244140624	363.6004638671875	-203.9232635498047	1108.155517578125	552.0237426757812	-263.9339599609375	1085.140869140625	540.3204345703125	-299.9288024902344	1084.610961914062	572.102783203125	-247.3532257080078	1670.30224609375	43.76918029785156	-313.432861328125
239	1.19	1551.503784179688	1429.78564453125	-467.9679565429688	1617.488159179688	1425.9912109375	-175.3137817382812	1565.937377929688	967.2308349609376	-437.0289001464844	1595.15576171875	959.2608642578124	-137.2170715332031	1627.635620117188	922.6663208007812	-419.4266357421875	1671.478881835938	72.78268432617188	-290.24365234375	1651.240966796875	911.489013671875	-161.2776794433594	1509.14697265625	840.7332763671875	-436.7962646484375	1496.1494140625	866.0564575195312	-124.8308486938477	1484.684692382812	1001.449829101562	-278.1689453125	1713.369995117188	638.0032348632812	-427.5768737792969	1674.978271484375	245.0391235351562	-387.1638793945312	1637.347290039062	608.67236328125	-431.8596496582031	1746.545776367188	543.4228515625	-402.5025939941406	994.97314453125	441.3976135253906	-163.8079223632812	1673.07275390625	342.0336303710938	-407.405029296875	1665.895385742188	516.78125	-404.5606079101562	1567.709716796875	590.5514526367188	-104.7767639160156	1907.777099609375	90.74726104736328	-320.1530151367188	1492.0615234375	609.4866943359375	-113.2038650512695	1543.757202148438	491.9965515136719	-108.5530395507812	1467.252197265625	515.0081787109375	-122.637809753418	1715.052612304688	483.5520629882812	-401.7302856445312	1483.171142578125	482.2335205078125	-108.333381652832	1751.616455078125	345.3563232421875	-399.8876953125	1754.554809570312	246.1658782958984	-383.9410095214844	1378.931396484375	445.0249938964844	-116.4730911254883	1856.958129882812	57.12627410888672	-381.8160095214844	1389.07177734375	525.8059692382812	-121.0144653320312	1686.752807617188	48.47812271118164	-262.3791198730469	1279.451293945312	456.9187622070312	-137.2342987060547	1293.057250976562	534.4309692382812	-146.0803833007812	1722.5390625	80.5928726196289	-351.9409790039062	1111.652221679688	520.3827514648438	-196.0734100341797	992.9085083007812	366.6900024414062	-203.7705078125	1139.968994140625	553.6869506835938	-263.9026489257812	1116.799438476562	542.2796630859375	-299.4507446289062	1116.29833984375	574.3564453125	-247.4762725830078	1672.959594726562	42.98086929321289	-315.1514892578125
240	1.195	1573.0244140625	1423.53173828125	-469.7468566894531	1637.1494140625	1420.419555664062	-175.5659942626953	1584.494018554688	962.063720703125	-437.3551330566406	1615.40234375	953.7890625	-137.1691436767578	1646.2734375	918.5586547851562	-420.0354919433594	1674.766967773438	72.87564849853516	-290.3865356445312	1671.132568359375	906.1917114257812	-161.7708740234375	1528.32763671875	835.4593505859375	-435.930908203125	1517.412841796875	858.7020263671875	-124.2059707641602	1504.033569335938	995.4091796875	-278.4124755859375	1734.196411132812	633.2543334960938	-425.8920593261719	1688.555908203125	242.5890655517578	-387.1031188964844	1656.53125	603.2982177734375	-431.6015319824219	1766.018798828125	539.102294921875	-402.1741638183594	1026.579345703125	443.4726867675781	-163.1675262451172	1690.794677734375	340.4002075195312	-406.7211608886719	1685.990112304688	512.19189453125	-404.3270263671875	1593.966064453125	585.263916015625	-103.7269973754883	1913.190063476562	81.20426177978516	-312.2005920410156	1518.186767578125	602.506103515625	-111.6158142089844	1571.92041015625	486.7226867675781	-106.888069152832	1494.9443359375	506.2551574707031	-121.0203247070312	1735.146606445312	478.7257690429688	-401.0116577148438	1511.880004882812	475.3992614746094	-106.2589492797852	1769.502807617188	340.1794738769531	-398.1414489746094	1768.237426757812	241.361083984375	-382.1410827636719	1408.5458984375	440.2559509277344	-115.7981491088867	1862.142456054688	55.90068817138672	-377.5297241210938	1420.184204101562	520.8842163085938	-119.3658294677734	1688.34326171875	48.0024528503418	-262.390380859375	1309.173461914062	454.5005493164062	-136.4136505126953	1324.535888671875	531.391845703125	-145.3210144042969	1727.736572265625	79.0164794921875	-350.6961059570312	1143.301879882812	521.38232421875	-195.7444763183594	1023.563049316406	369.1052551269531	-203.3862762451172	1171.781005859375	555.4575805664062	-263.7073669433594	1148.289794921875	544.1984252929688	-298.8168640136719	1148.344116210938	575.8788452148438	-246.8080444335938	1675.215942382812	43.40691757202148	-315.3358154296875
